{"title":"Divergent.2014.TS Xvid Mp3-MiLLENiUM","uid":10412702,"size":1770887896,"categoryP":"video","categoryS":"movies","magnet":"?xt=urn:btih:44cf94ab4b5fc7f1ca92e171ac5c4c0fec8b3fd1&amp;dn=Divergent.2014.TS+Xvid+Mp3-MiLLENiUM&amp;tr=udp%3A%2F%2Ftracker.openbittorrent.com%3A80&amp;tr=udp%3A%2F%2Fopen.demonii.com%3A1337&amp;tr=udp%3A%2F%2Ftracker.coppersurfer.tk%3A6969&amp;tr=udp%3A%2F%2Fexodus.desync.com%3A6969","seeders":32,"leechers":7,"uploader":"xxxlavalxxx","files":-1,"time":1403560004,"description":"[IMG]http://i.imgur.com/oqgwunb.jpg[/IMG]\n &lt;a href=&quot;\nhttp://www.imdb.com/title/tt1840309/&quot; rel=&quot;nofollow&quot; target=&quot;_NEW&quot;&gt;\nhttp://www.imdb.com/title/tt1840309/&lt;/a&gt;\n\n\nIn a world divided by factions based on virtues, Tris learns she's Divergent and won't fit in. When she discovers a plot to destroy Divergents, Tris and the mysterious Four must find out what makes Divergents dangerous before it's too late.\n\nDirector: Neil Burger\nWriters: Evan Daugherty (screenplay), Vanessa Taylor (screenplay)\nStars: Shailene Woodley, Theo James, Kate Winslet\nGenres: Action | Adventure | Sci-Fi\nCountry: USA\nLanguage: English\n\n\n\nComplete name                            : Divergent.2014.TS Xvid Mp3-MiLLENiUM.avi\nAudio source                             : EcHo-Another-MiLLENiUM-Exclusicve [Nice Bro!!!]\nvideo Source                             : MrBootlegger [thanks]\nFormat                                   : AVI\nFormat/Info                              : Audio Video Interleave\nFile size                                : 1.60 GiB\nDuration                                 : 2h 11mn\nOverall bit rate                         : 1 740 Kbps\n\nVideo\nID                                       : 0\nFormat                                   : MPEG-4 Visual\nFormat profile                           : Advanced Simple@L5\nFormat settings, BVOP                    : 2\nFormat settings, QPel                    : Yes\nFormat settings, GMC                     : No warppoints\nFormat settings, Matrix                  : Default (MPEG)\nCodec ID                                 : XVID\nCodec ID/Hint                            : XviD\nDuration                                 : 2h 11mn\nBit rate                                 : 1 600 Kbps\nWidth                                    : 704 pixels\nHeight                                   : 288 pixels\nDisplay aspect ratio                     : 2.40:1\nFrame rate                               : 23.976 fps\nColor space                              : YUV\nChroma subsampling                       : 4:2:0\nBit depth                                : 8 bits\nScan type                                : Progressive\nCompression mode                         : Lossy\nBits/(Pixel*Frame)                       : 0.329\nStream size                              : 1.47 GiB (92%)\nWriting library                          : XviD 1.2.1 (UTC 2008-12-04)\n\nAudio\nID                                       : 1\nFormat                                   : MPEG Audio\nFormat version                           : Version 1\nFormat profile                           : Layer 3\nMode                                     : Joint stereo\nMode extension                           : MS Stereo\nCodec ID                                 : 55\nCodec ID/Hint                            : MP3\nDuration                                 : 2h 11mn\nBit rate mode                            : Constant\nBit rate                                 : 128 Kbps\nChannel(s)                               : 2 channels\nSampling rate                            : 44.1 KHz\nCompression mode                         : Lossy\nStream size                              : 121 MiB (7%)\nAlignment                                : Aligned on interleaves\nInterleave, duration                     : 26 ms (0.63 video frame)\nInterleave, preload duration             : 182 ms\nWriting library                          : LAME3.82\n\nNotes : \n\nwas waiting for better vid but never came ...late i know but mehhh ...\nvideo has its issues but is watchable \nenjoy :)\n\n &lt;a href=&quot;\nhttp://i.imgur.com/JfRpwRw.jpg&quot; rel=&quot;nofollow&quot; target=&quot;_NEW&quot;&gt;\nhttp://i.imgur.com/JfRpwRw.jpg&lt;/a&gt; &lt;a href=&quot;\nhttp://i.imgur.com/BU4uxeA.jpg&quot; rel=&quot;nofollow&quot; target=&quot;_NEW&quot;&gt;\nhttp://i.imgur.com/BU4uxeA.jpg&lt;/a&gt; &lt;a href=&quot;\nhttp://i.imgur.com/1GBLENY.jpg&quot; rel=&quot;nofollow&quot; target=&quot;_NEW&quot;&gt;\nhttp://i.imgur.com/1GBLENY.jpg&lt;/a&gt; &lt;a href=&quot;\nhttp://i.imgur.com/SGCyO8B.jpg&quot; rel=&quot;nofollow&quot; target=&quot;_NEW&quot;&gt;\nhttp://i.imgur.com/SGCyO8B.jpg&lt;/a&gt; &lt;a href=&quot;\nhttp://i.imgur.com/CsQ0Omk.jpg&quot; rel=&quot;nofollow&quot; target=&quot;_NEW&quot;&gt;\nhttp://i.imgur.com/CsQ0Omk.jpg&lt;/a&gt; &lt;a href=&quot;\nhttp://i.imgur.com/qEj4RIk.jpg&quot; rel=&quot;nofollow&quot; target=&quot;_NEW&quot;&gt;\nhttp://i.imgur.com/qEj4RIk.jpg&lt;/a&gt;","torrent":{"xt":"urn:btih:44cf94ab4b5fc7f1ca92e171ac5c4c0fec8b3fd1","amp;dn":"Divergent.2014.TS+Xvid+Mp3-MiLLENiUM","amp;tr":["udp%3A%2F%2Ftracker.openbittorrent.com%3A80","udp%3A%2F%2Fopen.demonii.com%3A1337","udp%3A%2F%2Ftracker.coppersurfer.tk%3A6969","udp%3A%2F%2Fexodus.desync.com%3A6969"],"infoHash":"44cf94ab4b5fc7f1ca92e171ac5c4c0fec8b3fd1","infoHashBuffer":{"type":"Buffer","data":[68,207,148,171,75,95,199,241,202,146,225,113,172,92,76,15,236,139,63,209]},"announce":[],"urlList":[]}}